<?xml version="1.0" encoding="UTF-8" standalone="no"?>
<!DOCTYPE svg PUBLIC "-//W3C//DTD SVG 1.1//EN"
 "http://www.w3.org/Graphics/SVG/1.1/DTD/svg11.dtd">
<!-- Generated by graphviz version 2.38.0 (20140413.2041)
 -->
<!-- Title: graph_name Pages: 1 -->
<svg width="1789pt" height="1182pt"
 viewBox="14.40 14.40 1774.40 1167.40" xmlns="http://www.w3.org/2000/svg" xmlns:xlink="http://www.w3.org/1999/xlink">
<g id="graph0" class="graph" transform="scale(1 1) rotate(0) translate(18.4 1163.4)">
<title>graph_name</title>
<polygon fill="white" stroke="none" points="-4,4 -4,-1149 1756,-1149 1756,4 -4,4"/>
<text text-anchor="middle" x="876" y="-1126.6" font-family="Times New Roman,serif" font-size="18.00" fill="white">sample graph</text>
<!-- index_html -->
<g id="node1" class="node"><title>index_html</title>
<g id="a_node1"><a xlink:href="https://raw.githubusercontent.com/T-kazu1234/game/gh-pages/GameFolder04/index.html" xlink:title=" index_html">
<image xlink:href="image\Enchantjs\GameFolder_04\HTML.png" width="602px" height="602px" preserveAspectRatio="xMinYMin meet" x="462.5" y="-1030"/>
<text text-anchor="middle" x="763.5" y="-434" font-family="Migu 1M" font-size="20.00"> index_html</text>
</a>
</g>
</g>
<!-- MainPlayer_js -->
<g id="node2" class="node"><title>MainPlayer_js</title>
<g id="a_node2"><a xlink:href="https://raw.githubusercontent.com/T-kazu1234/game/gh-pages/GameFolder04/MainPlayer.js" xlink:title=" MainPlayer_js">
<image xlink:href="image\Enchantjs\GameFolder_04\JavaScript.png" width="227px" height="227px" preserveAspectRatio="xMinYMin meet" x="0" y="-302"/>
<text text-anchor="middle" x="113.5" y="-81.2" font-family="Migu 1M" font-size="21.00"> MainPlayer_js</text>
</a>
</g>
</g>
<!-- index_html&#45;&gt;MainPlayer_js -->
<g id="edge2" class="edge"><title>index_html&#45;&gt;MainPlayer_js</title>
<g id="a_edge2"><a xlink:href="http://ja.wikipedia.org/wiki/師弟" xlink:title="線">
<path fill="none" stroke="black" d="M462.342,-558.209C383.549,-505.949 302.107,-444.266 235.5,-377 216.03,-357.338 197.948,-334.096 181.989,-310.791"/>
<polygon fill="black" stroke="black" points="184.697,-308.546 176.206,-302.208 178.891,-312.457 184.697,-308.546"/>
</a>
</g>
<g id="a_edge2&#45;label"><a xlink:href="http://ja.wikipedia.org/wiki/師弟" xlink:title="線">
<text text-anchor="middle" x="268" y="-398.8" font-family="ダミー" font-size="14.00">線</text>
</a>
</g>
</g>
<!-- SceneData_js -->
<g id="node3" class="node"><title>SceneData_js</title>
<g id="a_node3"><a xlink:href="https://raw.githubusercontent.com/T-kazu1234/game/gh-pages/GameFolder04/SceneData.js" xlink:title=" SceneData_js">
<image xlink:href="image\Enchantjs\GameFolder_04\JavaScript.png" width="227px" height="227px" preserveAspectRatio="xMinYMin meet" x="245" y="-302"/>
<text text-anchor="middle" x="358.5" y="-81.4" font-family="Migu 1M" font-size="22.00"> SceneData_js</text>
</a>
</g>
</g>
<!-- index_html&#45;&gt;SceneData_js -->
<g id="edge3" class="edge"><title>index_html&#45;&gt;SceneData_js</title>
<g id="a_edge3"><a xlink:href="http://ja.wikipedia.org/wiki/師弟" xlink:title="線">
<path fill="none" stroke="black" d="M518.342,-427.985C505.375,-410.864 492.682,-393.789 480.5,-377 465.231,-355.956 449.604,-333.096 434.852,-310.808"/>
<polygon fill="black" stroke="black" points="437.669,-308.723 429.243,-302.3 431.824,-312.575 437.669,-308.723"/>
</a>
</g>
<g id="a_edge3&#45;label"><a xlink:href="http://ja.wikipedia.org/wiki/師弟" xlink:title="線">
<text text-anchor="middle" x="510" y="-398.8" font-family="ダミー" font-size="14.00">線</text>
</a>
</g>
</g>
<!-- common_js -->
<g id="node4" class="node"><title>common_js</title>
<image xlink:href="image\Enchantjs\GameFolder_04\JavaScript.png" width="227px" height="227px" preserveAspectRatio="xMinYMin meet" x="490" y="-302"/>
<text text-anchor="middle" x="603.5" y="-81.6" font-family="Migu 1M" font-size="23.00"> common_js</text>
</g>
<!-- index_html&#45;&gt;common_js -->
<g id="edge4" class="edge"><title>index_html&#45;&gt;common_js</title>
<g id="a_edge4"><a xlink:href="http://ja.wikipedia.org/wiki/師弟" xlink:title="線">
<path fill="none" stroke="black" d="M674.261,-427.653C662.141,-386.865 650.309,-347.04 639.895,-311.993"/>
<polygon fill="black" stroke="black" points="643.2,-310.827 636.997,-302.238 636.49,-312.821 643.2,-310.827"/>
</a>
</g>
<g id="a_edge4&#45;label"><a xlink:href="http://ja.wikipedia.org/wiki/師弟" xlink:title="線">
<text text-anchor="middle" x="675" y="-398.8" font-family="ダミー" font-size="14.00">線</text>
</a>
</g>
</g>
<!-- enchant_js -->
<g id="node5" class="node"><title>enchant_js</title>
<image xlink:href="image\Enchantjs\GameFolder_04\enchant.png" width="377px" height="377px" preserveAspectRatio="xMinYMin meet" x="735" y="-377"/>
<text text-anchor="middle" x="923.5" y="-6.8" font-family="Migu 1M" font-size="24.00"> enchant_js</text>
</g>
<!-- index_html&#45;&gt;enchant_js -->
<g id="edge5" class="edge"><title>index_html&#45;&gt;enchant_js</title>
<g id="a_edge5"><a xlink:href="http://ja.wikipedia.org/wiki/師弟" xlink:title="線">
<path fill="none" stroke="black" d="M852.739,-427.653C856.834,-413.872 860.896,-400.202 864.881,-386.788"/>
<polygon fill="black" stroke="black" points="868.276,-387.651 867.769,-377.068 861.566,-385.657 868.276,-387.651"/>
</a>
</g>
<g id="a_edge5&#45;label"><a xlink:href="http://ja.wikipedia.org/wiki/師弟" xlink:title="線">
<text text-anchor="middle" x="867" y="-398.8" font-family="ダミー" font-size="14.00">線</text>
</a>
</g>
</g>
<!-- game_js -->
<g id="node6" class="node"><title>game_js</title>
<image xlink:href="image\Enchantjs\GameFolder_04\JavaScript.png" width="227px" height="227px" preserveAspectRatio="xMinYMin meet" x="1130" y="-302"/>
<text text-anchor="middle" x="1243.5" y="-83" font-family="Migu 1M" font-size="25.00"> game_js</text>
</g>
<!-- index_html&#45;&gt;game_js -->
<g id="edge6" class="edge"><title>index_html&#45;&gt;game_js</title>
<g id="a_edge6"><a xlink:href="http://ja.wikipedia.org/wiki/師弟" xlink:title="線">
<path fill="none" stroke="black" d="M1064.68,-442.586C1084.44,-420.876 1103.58,-398.888 1121.5,-377 1138.37,-356.393 1154.96,-333.371 1170.2,-310.707"/>
<polygon fill="black" stroke="black" points="1173.12,-312.64 1175.76,-302.378 1167.3,-308.756 1173.12,-312.64"/>
</a>
</g>
<g id="a_edge6&#45;label"><a xlink:href="http://ja.wikipedia.org/wiki/師弟" xlink:title="線">
<text text-anchor="middle" x="1111" y="-398.8" font-family="ダミー" font-size="14.00">線</text>
</a>
</g>
</g>
<!-- tl_enchant_js -->
<g id="node7" class="node"><title>tl_enchant_js</title>
<image xlink:href="image\Enchantjs\GameFolder_04\enchant.png" width="377px" height="377px" preserveAspectRatio="xMinYMin meet" x="1375" y="-377"/>
<text text-anchor="middle" x="1563.5" y="-8.2" font-family="Migu 1M" font-size="26.00"> tl_enchant_js</text>
</g>
<!-- index_html&#45;&gt;tl_enchant_js -->
<g id="edge7" class="edge"><title>index_html&#45;&gt;tl_enchant_js</title>
<g id="a_edge7"><a xlink:href="http://ja.wikipedia.org/wiki/師弟" xlink:title="線">
<path fill="none" stroke="black" d="M1064.8,-570.965C1164.05,-514.493 1272.89,-447.265 1366.5,-377 1366.59,-376.936 1366.67,-376.872 1366.76,-376.807"/>
<polygon fill="black" stroke="black" points="1368.89,-379.583 1374.72,-370.736 1364.64,-374.016 1368.89,-379.583"/>
</a>
</g>
<g id="a_edge7&#45;label"><a xlink:href="http://ja.wikipedia.org/wiki/師弟" xlink:title="線">
<text text-anchor="middle" x="1343" y="-398.8" font-family="ダミー" font-size="14.00">線</text>
</a>
</g>
</g>
<!-- GameFolder_04 -->
<g id="node8" class="node"><title>GameFolder_04</title>
<polygon fill="none" stroke="black" points="814,-1117 713,-1117 713,-1081 814,-1081 814,-1117"/>
<text text-anchor="middle" x="763.5" y="-1095.9" font-family="Migu 1M" font-size="12.00">GameFolder_04</text>
</g>
<!-- GameFolder_04&#45;&gt;index_html -->
<g id="edge1" class="edge"><title>GameFolder_04&#45;&gt;index_html</title>
<g id="a_edge1"><a xlink:href="http://ja.wikipedia.org/wiki/師弟" xlink:title="線">
<path fill="none" stroke="black" d="M763.5,-1080.74C763.5,-1070.71 763.5,-1056.76 763.5,-1040.18"/>
<polygon fill="black" stroke="black" points="767,-1040.12 763.5,-1030.12 760,-1040.12 767,-1040.12"/>
</a>
</g>
<g id="a_edge1&#45;label"><a xlink:href="http://ja.wikipedia.org/wiki/師弟" xlink:title="線">
<text text-anchor="middle" x="771" y="-1051.8" font-family="ダミー" font-size="14.00">線</text>
</a>
</g>
</g>
</g>
</svg>
